<svg version="1.2" xmlns="http://www.w3.org/2000/svg" viewBox="0 0 1640 224" width="1640" height="224">
	<title>logo brazil_times</title>
	<style>
		.s0 { fill: #13203b } 
	</style>
	<path id="The Brazil Times" class="s0" aria-label="The Brazil Times"  d="m54.4 62.1c0-7.2 6.5-10.8 13.8-10.8 9.7 0 45.8 11.7 65.6 14.1v25.7l-13.7 13.7 13.7 13.7v35.4c-6.8 3.5-14.6 5.5-23.1 5.5-13.5 0-24.9-5.2-33.2-13.4l36.8-15.4v-63.3l-45.9 19.6c6.6-14.1 17.5-22.3 21-24.7l-2-3c-30.8 5.1-49 32.5-49 58.1 0 38.5 32.5 64.9 66.6 64.9 33.8 0 60.4-25.2 60.4-57.1 0-0.6 0-1.3-0.1-2h-4c-4 10.5-11.5 20.6-21.7 27.4v-31.8l13.9-13.9-13.9-13.9v-25.1c0.1 0 0.2 0 0.2 0 15.1 0 28.3-8 28.3-23 0-15.3-15.2-26-34.7-24.5v4c6.4 0.8 15.9 1.8 15.9 9.1 0 4.6-4.3 6.7-8.8 6.7-19 0-46.6-14.9-64.2-14.9-20.3 0-33 13.1-33 28 0 10.9 6.4 18.6 14.2 22l2-3c-2.8-1.3-5.1-4.1-5.1-8.1zm11.3 31.9l21.7-9.2v51l-13.7 5.8c-6.7-8.5-10.5-19.4-10.5-31 0-6.1 0.9-11.7 2.5-16.6zm150.7 64.1v-51.4l11.5-10.8 12.4 10.2v53.1c0 21.6-7.5 41.8-22.9 41.8v5c2.1 0.3 4.3 0.5 6.4 0.5 36.2 0 43.5-25.8 43.5-47.3v-59.5l8.9-7.2-3.6-4.6-8.2 6.7-22.1-18.4-25.9 24.3v-77.2h-4l-34 23.9v3c10 3.1 10 7.6 10 11v94.9l-14 9 3.6 4.8 8-5 21.4 18.1 25.9-17.9-3.7-4.7-6.5 4.5zm67.1 11.5l9.3-7.5 30.9 22.9 42.9-34.9-3-5-23 18-24.9-17v-9l44.9-28v-1l-21-31.9-49.9 25.9v54.9l-9.8 8zm32.1-39.6v-35.5l4-2.3 16.9 24.5zm133.8-23.4c2.1 0 4.2 0 6.3 0 0 4.7 0 9.4 0 14.1 0.1 17.6-1.1 30.9-12.7 37.5l2 5c19.4-4.8 37.6-17.7 37.6-43.4v-51.8c0-7.8 2.4-11.8 6.9-15.3l30.8-24.2 1.3-4.6c-4.8 2.9-11.3 5.1-18.6 5.1-9.9 0-18.6-4-28.4-4-18.3 0-30.9 13.3-36.1 26h4.9c2.1-5.6 7.3-9.3 14.5-9.3 9.4 0 16.1 5 25.7 5 0.8 0 1.5-0.1 2.3-0.1-5.9 3.7-11.8 7.4-17.6 11.2-7 4.4-12.6 8.6-12.6 20 0 0 0 0.1 0 0.1v5.3c-4.5 0.7-9 1.4-13.2 3.4-6.9 3.2-12.2 9.9-12.2 19.8 0 4.3 1.1 8.5 3.2 12.2h3.9c-1.4-8 4.4-12 12-12zm85 50.2c0-2.1 0-4.2 0-6.4l30.4-15.3v23l-17.1 7.9c-3.9-3.4-8.3-6.6-13.3-9.2zm0-62.8c9.9 3.5 19.2 8.4 27.4 14.1l-27.4 13.8c0-9.3 0-18.6 0-27.9zm-6 60c-7.6-3-16.3-4.9-26.1-4.9-1.4 0-2.9 0-4.3 0.1 11.2-9.3 22.2-18.8 22.2-39.1v-54.6c0.1-6.4 3.7-11.7 8.2-15.2 0 37.9 0 75.8 0 113.7zm6-25.4l30.4-15.4v15.2l-30.4 15.3c0-5 0-10.1 0-15.1zm0-89.4l27.7 32.6-27.7 20.7c0-17.8 0-35.5 0-53.3zm29.2 40.1l25.9-18.2-33.7-39.5c-26 8.6-47.8 24.8-63.3 44.7v65.1c0 8.3-2 14.3-5.4 19.2-23.6 4.6-42.2 19.9-53.3 39.2h5c10-9.7 24.3-16.2 43-16.2 14.1 0 28.1 3.8 40.6 10.3l69.7-36v-52.3c-8.1-6.7-17.8-12.4-28.5-16.3zm100.5 77.7l-11.2 7.7-8.3-6.5v-61.5c6.8 6.5 14.1 8.6 18.6 8.6 6.2 0 18.3-3.2 20.8-29.1h-6.2c-1.8 2.8-5.2 5.2-9.5 5.2-3.8 0-7.4-2.1-9.4-5.2h-2.1l-14.5 16.5-15.3-16.4-28 19 3 4 8-5 7 9v54.9l-13 9 3 4 7-5 22.9 17.9 31.1-22.5zm49.9-63.8l24.6 15.1c0 6.5 0 13 0 19.5-13.9-3.2-35.9-8.7-35.9-22.1 0-5.5 5.2-9.3 11.3-12.5zm3.6 91l22-16 15.9 15.9 29-19.9-1-4-8.9 6-10-10v-52.5l10.8-8.8-3.6-4.6-8.4 6.9-30.8-19.9-23 12c-6.1 3.2-13 8.5-13 17.6 0 9.7 7.4 15.7 17 19.8-15.5 8.3-24 18.9-24 30 0 15.6 14.8 25.8 28 27.5zm21-50.2c0 10.6 0 21.1 0 31.6-1.4 0.4-2.9 0.6-4.3 0.6-13 0-19.5-16.6-19.5-28.4 0-4 1.2-7.5 2.6-9.6 6.9 2.6 14.6 4.3 21.2 5.8zm123.9 26.2l6-7 3 2-22 27c-9.7-4.3-20.6-7.9-33.5-7.9-11.7 0-20.2 3.3-27.4 8.9l-2-2c4.5-14.8 14-28.5 24.8-41.6l1.2-1.3h-14l-5 5-3-3 17-20h20.8l14.1-16c-6.2 2-12.7 2.9-19.1 2.9-10.5 0-18.6-2-26.8-5.9l-5 8-4-2 16-30c10.1 4 20 7 33.1 7 11 0 21.1-1.8 28.8-7l2 3c-8.4 14.8-19 27.6-30 40h15.2l4.8-5 3 3-17 20h-21.9c-2.6 3-5.2 6-7.7 9.1l-6.3 7.8c6.9-2 14.1-3.1 21.3-3.1 12.8 0 23.3 2.8 33.6 8.1zm73.5-1l-9 6-7-7v-62.9l-15.9-19-28 19 3 4 8-5 7 9v54.9l-13 9 3 4 7-5 19.9 18 30-21zm-48.6-111l17.7 20.3 19.9-17.5-17.7-20.2zm95.6 110v-134.9h-4l-33.9 24v3c9.1 3 10 5.3 10 15.1v90.8l-14 8.9 3 4 8-5 22 19 25.9-18-3-4-6 5zm102.4-95.9c0-7.3 6.6-10.9 13.8-10.9 9.8 0 45.9 11.7 65.6 14.1v25.7l-13.7 13.7 13.7 13.7v35.5c-6.8 3.4-14.5 5.4-23.1 5.4-13.4 0-24.9-5.1-33.1-13.3l36.7-15.5v-63.2l-45.9 19.5c6.6-14.1 17.5-22.2 21.1-24.6l-2-3c-30.9 5.1-49.1 32.5-49.1 58 0 38.5 32.6 65 66.6 65 33.8 0 60.4-25.3 60.4-57.1 0-0.7 0-1.3 0-2h-4c-4.1 10.5-11.6 20.5-21.7 27.4v-31.9l13.9-13.9-13.9-13.9v-25.1c0 0 0.1 0 0.2 0 15 0 28.2-8 28.2-23 0-15.3-15.2-26-34.7-24.5v4c6.4 0.9 15.9 1.9 15.9 9.2 0 4.6-4.3 6.7-8.8 6.7-19 0-46.6-14.9-64.2-14.9-20.2 0-33 13-33 28 0 10.9 6.4 18.5 14.2 22l2-3c-2.8-1.4-5.1-4.2-5.1-8.1zm11.3 31.9l21.7-9.2v50.9l-13.7 5.9c-6.7-8.6-10.5-19.5-10.5-31.1 0-6.1 1-11.6 2.5-16.5zm165.5 65l-8.9 6-7-7v-62.9l-16-18.9-28 18.9 3 4 8-5 7 9v54.9l-13 9 3 4 7-5 20 18 29.9-21zm-48.6-111l17.8 20.3 19.9-17.5-17.8-20.2zm155.9 119.5l-10.8-9.7v-55.7l11-6.6 14.4 13.1v51.4l-8.7 8 20.6 17.9 30.9-20-0.1-7.7-9 6.8-9.7-10v-52.3l10.3-8.4-3.7-4.5-6.8 5.5-21.6-18.6-28.7 17.8-20.7-17.8-27.4 17-15.3-17-29 19.9 3 4 8-5 8 9v55.4l-8 7 24 18.9 20-17.9-9-8v-59l9.1-5.5 14.4 13.1v51.4l-8.7 8 20.6 17.9zm62.5 2l9.2-7.5 30.9 23 43-35-3-5-23 18-24.9-17v-9l44.9-27.9v-1l-21-32-49.9 26v54.9l-9.9 8zm32.2-39.7v-35.5l4-2.2 16.9 24.5zm70.6 63.9l2-5.5c-1.6-0.9-2.9-2.7-2.9-5.1 0-5.1 4.9-7.9 9.8-7.9 7.4 0 12.6 4.8 15.4 9.7l41.2-25v-31.4l-18-13.3c11.7-10.8 16.6-22.7 18.2-38.6h-5.9c0 0 0 0 0 0h-0.1c-0.5 4.9-4.9 8.7-10.4 8.7-7.1 0-12.2-4.7-15.2-9.1l-43.1 25v29.2l15.8 12.4c-16.4 15.2-19.8 22.8-19.8 31.5 0 9.8 5.8 16.6 13 19.4zm27-60.9l11.6 9.2v27.2c-3.9-8.5-12.4-16-24.4-16-5.5 0-10.6 1.8-14.6 4.9 5.1-6.3 12.6-12.5 19.9-18.8zm-0.5-7.3l-8.6-8.8v-27.1c4.3 10.6 13.4 15.3 22.4 15.3 3.7 0 7.3-0.7 10.5-2.1-2.8 3.9-5.9 7-8.9 9.5z"/>
</svg>